<svg xmlns="http://www.w3.org/2000/svg" xmlns:xlink="http://www.w3.org/1999/xlink" fill="none" version="1.1" width="54.45050048828125" height="13.220672607421875" viewBox="0 0 54.45050048828125 13.220672607421875"><g><path d="M8.35809,1.9095L8.35809,5.99287L4.4388,5.99287L4.4388,5.37759L4.4388,1.9095L8.35809,1.9095ZM0,5.99287L0,7.00456L3.30399,7.00456C3.10809,8.97787,2.39709,10.9102,0.0273438,12.3959C0.309891,12.5827,0.688156,12.9473,0.870438,13.2071C3.45898,11.5163,4.18819,9.26956,4.38409,7.00456L8.35809,7.00456L8.35809,13.1615L9.43819,13.1615L9.43819,7.00456L12.5599,7.00456L12.5599,5.99287L9.43819,5.99287L9.43819,1.9095L12.127,1.9095L12.127,0.902344L0.519531,0.902344L0.519531,1.9095L3.37698,1.9095L3.37698,5.37759L3.3633,5.99287L0,5.99287ZM17.1354,7.63797L17.1354,13.0612L18.1608,13.0612L18.1608,12.1179L24.6139,12.1179L24.6139,13.0339L25.694,13.0339L25.694,7.63797L17.1354,7.63797ZM18.1608,11.17L18.1608,8.61787L24.6139,8.61787L24.6139,11.17L18.1608,11.17ZM19.3776,0.291672C19.6738,0.847641,20.0202,1.57225,20.2025,2.09634L15.431,2.09634L15.431,5.46419C15.431,7.65627,15.2761,10.4226,13.7767,12.4141C14.0137,12.5463,14.4649,12.9427,14.6335,13.166C16.1146,11.1563,16.4518,8.29887,16.4928,5.99287L25.4388,5.99287L25.4388,2.09634L20.8496,2.09634L21.3236,1.93684C21.1413,1.41277,20.7494,0.597,20.3711,0L19.3776,0.291672ZM16.4928,3.07617L24.377,3.07617L24.377,5.01302L16.4928,5.01302L16.4928,3.07617ZM33.3229,1.0345L33.3229,2.04622L39.9447,2.04622L39.9447,1.0345L33.3229,1.0345ZM27.7494,10.4317L27.9863,11.4935C29.3307,11.1016,31.181,10.5638,32.931,10.0534L32.8034,9.07817L30.8027,9.63406L30.8027,6.28447L32.4115,6.28447L32.4115,5.30469L30.8027,5.30469L30.8027,2.01888L32.6211,2.01888L32.6211,1.0345L27.9316,1.0345L27.9316,2.01888L29.7774,2.01888L29.7774,5.30469L28.1413,5.30469L28.1413,6.28447L29.7774,6.28447L29.7774,9.92578L27.7494,10.4317ZM32.7077,5.11784L32.7077,6.14326L34.5944,6.14326C34.4577,9.38797,34.0658,11.3796,31.222,12.4278C31.4316,12.6101,31.7233,12.9883,31.8372,13.2207C34.918,12.0495,35.4512,9.77997,35.6198,6.14326L37.2012,6.14326L37.2012,11.653C37.2012,12.7787,37.4382,13.1159,38.4316,13.1159C38.6413,13.1159,39.4525,13.1159,39.6484,13.1159C40.5462,13.1159,40.7969,12.569,40.8971,10.5775C40.6009,10.5046,40.168,10.3314,39.9447,10.1263C39.9037,11.8444,39.8444,12.1179,39.5664,12.1179C39.3841,12.1179,38.7279,12.1179,38.5866,12.1179C38.2904,12.1179,38.2357,12.0495,38.2357,11.6394L38.2357,6.14326L40.6875,6.14326L40.6875,5.11784L32.7077,5.11784ZM42.6016,0.947922C43.5404,1.38086,44.6888,2.07812,45.263,2.57942L45.8646,1.67252C45.2767,1.19402,44.1009,0.546875,43.1895,0.168625L42.6016,0.947922ZM41.8633,4.7897C42.7702,5.17708,43.8913,5.82877,44.4518,6.28906L45.0397,5.42773C44.4655,4.972,43.3171,4.375,42.433,4.01497L41.8633,4.7897ZM42.3372,12.2181L43.2214,12.9564C44.0462,11.612,45.0261,9.79816,45.7689,8.26237L44.9987,7.55597C44.1875,9.19206,43.0801,11.1016,42.3372,12.2181ZM46.6758,12.6374C47.054,12.4642,47.6419,12.364,52.8783,11.6804C53.1608,12.2181,53.3841,12.724,53.5254,13.1296L54.4505,12.6374C54.0267,11.5072,52.9649,9.78445,51.9714,8.51297L51.1283,8.93227C51.5521,9.49738,51.985,10.1491,52.377,10.8008L47.9382,11.3067C48.804,10.0899,49.6882,8.54037,50.4173,6.99088L54.3913,6.99088L54.3913,5.99287L50.6953,5.99287L50.6953,3.49088L53.8171,3.49088L53.8171,2.49284L50.6953,2.49284L50.6953,0.0091095L49.6471,0.0091095L49.6471,2.49284L46.6348,2.49284L46.6348,3.49088L49.6471,3.49088L49.6471,5.99287L46.0195,5.99287L46.0195,6.99088L49.155,6.99088C48.4577,8.62697,47.5189,10.1765,47.209,10.6094C46.8581,11.1472,46.5938,11.4798,46.3158,11.5528C46.4388,11.8581,46.6211,12.405,46.6758,12.6374Z" fill="#FFFFFF" fill-opacity="1"/></g></svg>