<svg xmlns="http://www.w3.org/2000/svg" xmlns:xlink="http://www.w3.org/1999/xlink" fill="none" version="1.1" width="12.999969482421875" height="13.500053405761719" viewBox="0 0 12.999969482421875 13.500053405761719"><g><path d="M4.70712,4.70711C4.31659,5.09763,3.68341,5.09763,3.29288,4.70711L0.292877,1.70711C-0.0976257,1.31658,-0.0976257,0.683418,0.292877,0.292892C0.683411,-0.0976334,1.31659,-0.0976334,1.70712,0.292892L4.70712,3.29289C5.09763,3.68342,5.09763,4.31658,4.70712,4.70711ZM12.7071,0.292892C13.0976,0.683418,13.0976,1.31658,12.7071,1.70711L1.70712,12.7071C1.31659,13.0976,0.683411,13.0976,0.292908,12.7071C-0.0976257,12.3166,-0.0976257,11.6834,0.292908,11.2929L11.2929,0.292892C11.6834,-0.0976334,12.3166,-0.0976334,12.7071,0.292892ZM11.2929,13.2071C11.6834,13.5977,12.3166,13.5977,12.7071,13.2071C13.0976,12.8166,13.0976,12.1835,12.7071,11.7929L9.70712,8.79292C9.31659,8.4024,8.68341,8.4024,8.29288,8.79292C7.90237,9.18345,7.90237,9.81661,8.29288,10.2071L11.2929,13.2071Z" fill-rule="evenodd" fill="#9499A0" fill-opacity="1"/></g></svg>