<svg xmlns="http://www.w3.org/2000/svg" xmlns:xlink="http://www.w3.org/1999/xlink" fill="none" version="1.1" width="178.09524536132812" height="17.074249267578125" viewBox="0 0 178.09524536132812 17.074249267578125"><g><path d="M1.71094,1.29492C2.60742,2.14453,3.83203,3.36915,4.41211,4.07225L5.36133,3.05275C4.75195,2.36719,3.50977,1.23633,2.60742,0.439453L1.71094,1.29492ZM10.3477,0.105469C10.3125,6.37495,10.4062,12.7911,5.84766,16.0371C6.21094,16.254,6.64453,16.6758,6.87891,16.9864C9.28716,15.211,10.4942,12.5742,11.086,9.53325C11.7715,12.1171,13.0488,15.211,15.586,16.9688C15.8203,16.623,16.2188,16.2188,16.5762,15.961C12.6387,13.377,11.8067,7.57035,11.5723,5.81835C11.7012,3.96095,11.7012,2.01562,11.7188,0.105469L10.3477,0.105469ZM0,5.90625L0,7.20705L3.02344,7.20705L3.02344,13.4883C3.02344,14.3671,2.41406,14.9941,2.0332,15.246C2.28516,15.4864,2.66602,15.961,2.78906,16.254C3.04102,15.9082,3.52734,15.5215,6.9668,13.0665C6.83789,12.7911,6.66211,12.2812,6.56836,11.9121L4.33594,13.4355L4.33594,5.90625L0,5.90625ZM18.9902,1.30078C19.9628,2.14453,21.1875,3.35155,21.7793,4.14845L22.7168,3.16405C22.1192,2.39648,20.8593,1.26562,19.8692,0.509773L18.9902,1.30078ZM23.4902,14.9062L23.4902,16.1719L34.4707,16.1719L34.4707,14.9062L30.1875,14.9062L30.1875,8.90625L33.75,8.90625L33.75,7.62895L30.1875,7.62895L30.1875,2.67187L34.0723,2.67187L34.0723,1.40625L24.0997,1.40625L24.0997,2.67187L28.7988,2.67187L28.7988,14.9062L26.373,14.9062L26.373,6.09965L25.0372,6.09965L25.0372,14.9062L23.4902,14.9062ZM18.0527,5.90625L18.0527,7.20705L20.5898,7.20705L20.5898,13.5117C20.5898,14.4726,19.9277,15.1816,19.582,15.4688C19.8165,15.668,20.25,16.1133,20.414,16.4004C20.6835,16.0254,21.17,15.627,24.246,13.2011C24.082,12.9258,23.83,12.3809,23.707,12.0351L21.9082,13.418L21.9082,5.90625L18.0527,5.90625ZM47.789,5.81245L47.789,7.48825L40.2832,7.48825L40.2832,5.81245L47.789,5.81245ZM47.789,4.78125L40.2832,4.78125L40.2832,2.97075L47.789,2.97075L47.789,4.78125ZM47.789,8.53125L47.789,10.0665L47.4843,10.33L40.2832,10.33L40.2832,8.53125L47.789,8.53125ZM36.5567,10.33L36.5567,11.5312L45.9023,11.5312C43.0547,13.4941,39.6152,14.9296,35.9122,15.8848C36.1817,16.1719,36.5742,16.711,36.7383,17.0566C40.8398,15.8145,44.6602,14.086,47.789,11.6425L47.789,14.9473C47.789,15.3105,47.666,15.4161,47.2675,15.4511C46.8925,15.4688,45.5215,15.4688,44.0977,15.4161C44.2968,15.7969,44.5137,16.4062,44.584,16.7812C46.4062,16.7812,47.5723,16.7636,48.2227,16.5293C48.8907,16.3184,49.1075,15.8671,49.1075,14.9649L49.1075,10.5469C50.2032,9.51565,51.1933,8.39065,52.0547,7.16015L50.8887,6.55665C50.3672,7.34175,49.752,8.08595,49.1075,8.77735L49.1075,1.78125L44.0977,1.78125C44.3907,1.30664,44.6777,0.761719,44.9473,0.246094L43.4003,0C43.254,0.509773,42.9668,1.18359,42.6797,1.78125L38.9532,1.78125L38.9532,10.33L36.5567,10.33ZM66.7265,0.445312L65.502,0.685547C66.3105,4.26565,67.5,6.48635,69.7148,8.39065C69.914,7.97465,70.3067,7.52345,70.6523,7.25395C68.6192,5.60155,67.4825,3.69725,66.7265,0.445312ZM57.8145,0.152344C56.918,2.92383,55.3828,5.67775,53.748,7.47075C54,7.77535,54.3925,8.47855,54.539,8.81245C55.0605,8.20895,55.5645,7.54685,56.0508,6.79685L56.0508,16.9805L57.4043,16.9805L57.4043,4.48245C58.0488,3.21675,58.623,1.88086,59.0918,0.539062L57.8145,0.152344ZM62.209,0.556641C61.4883,3.40425,60.1172,5.84175,58.2305,7.36525C58.5,7.63475,58.9335,8.24415,59.0918,8.55465C59.5078,8.20895,59.9062,7.81645,60.2637,7.38285L60.2637,8.53125L62.5665,8.53125C62.1915,12.1406,61.1075,14.6015,58.5878,16.002C58.875,16.2364,59.3438,16.7402,59.5253,16.998C62.209,15.3457,63.4512,12.6446,63.9023,8.53125L67.125,8.53125C66.9082,13.1954,66.6387,14.9765,66.2578,15.3985C66.0762,15.621,65.9355,15.6562,65.6308,15.6562C65.3203,15.6562,64.5468,15.6386,63.7383,15.5684C63.9375,15.914,64.0957,16.4355,64.1192,16.8281C64.9453,16.8691,65.754,16.8691,66.2227,16.8281C66.7265,16.7754,67.084,16.6465,67.4122,16.2364C67.9688,15.586,68.2207,13.5704,68.4727,7.88675Q68.4902,7.70505,68.4902,7.27145L60.3515,7.27145C61.7753,5.56645,62.8535,3.34575,63.539,0.849609L62.209,0.556641ZM73.8692,1.77539L73.8692,6.45705C73.8692,9.36325,73.6758,13.2832,71.7305,16.0546C72.0527,16.2364,72.627,16.7226,72.8613,17.0156C74.9355,14.039,75.2402,9.58005,75.2402,6.45705L88.3242,6.45705L88.3242,5.15625L75.2402,5.15625L75.2402,2.90625C79.3593,2.63672,83.9532,2.15039,87.0821,1.38281L85.9336,0.240227C83.1622,0.972664,78.1407,1.51172,73.8692,1.77539ZM76.7695,9.14645L76.7695,16.998L78.1172,16.998L78.1172,16.0312L85.5879,16.0312L85.5879,16.9629L87.0117,16.9629L87.0117,9.14645L76.7695,9.14645ZM78.1172,14.7715L78.1172,10.4062L85.5879,10.4062L85.5879,14.7715L78.1172,14.7715ZM90.1641,1.40625L90.1641,2.75977L102.597,2.75977L102.597,15.0938C102.597,15.504,102.474,15.621,102.076,15.6562C101.648,15.6562,100.172,15.6796,98.7304,15.6036C98.9472,16.002,99.1992,16.67,99.2873,17.0625C101.068,17.0625,102.328,17.0625,103.049,16.8281C103.752,16.5938,104.004,16.125,104.004,15.1114L104.004,2.75977L106.218,2.75977L106.218,1.40625L90.1641,1.40625ZM93.3105,6.83205L98.045,6.83205L98.045,10.9864L93.3105,10.9864L93.3105,6.83205ZM91.998,5.53125L91.998,13.8457L93.3105,13.8457L93.3105,12.2812L99.3813,12.2812L99.3813,5.53125L91.998,5.53125ZM118.834,2.53125L118.834,7.78125L113.795,7.78125L113.795,6.99025L113.795,2.53125L118.834,2.53125ZM108.088,7.78125L108.088,9.08205L112.336,9.08205C112.084,11.6191,111.17,14.1036,108.123,16.0136C108.486,16.254,108.972,16.7226,109.207,17.0566C112.535,14.8829,113.472,11.9941,113.724,9.08205L118.834,9.08205L118.834,16.998L120.222,16.998L120.222,9.08205L124.236,9.08205L124.236,7.78125L120.222,7.78125L120.222,2.53125L123.679,2.53125L123.679,1.23633L108.756,1.23633L108.756,2.53125L112.429,2.53125L112.429,6.99025L112.412,7.78125L108.088,7.78125ZM130.119,9.89645L130.119,16.8691L131.437,16.8691L131.437,15.6562L139.734,15.6562L139.734,16.834L141.123,16.834L141.123,9.89645L130.119,9.89645ZM131.437,14.4375L131.437,11.1562L139.734,11.1562L139.734,14.4375L131.437,14.4375ZM133.002,0.451172C133.383,1.16602,133.828,2.09766,134.062,2.77148L127.927,2.77148L127.927,7.10155C127.927,9.91995,127.728,13.4765,125.801,16.0371C126.105,16.2071,126.685,16.7168,126.902,17.004C128.806,14.42,129.24,10.746,129.293,7.78125L140.795,7.78125L140.795,2.77148L134.894,2.77148L135.504,2.56641C135.269,1.89258,134.765,0.84375,134.279,0.0761719L133.002,0.451172ZM129.293,4.03125L139.429,4.03125L139.429,6.52145L129.293,6.52145L129.293,4.03125ZM150.931,1.40625L150.931,2.70703L159.445,2.70703L159.445,1.40625L150.931,1.40625ZM143.765,13.4883L144.07,14.8536C145.799,14.3496,148.177,13.6582,150.427,13.002L150.263,11.748L147.691,12.4629L147.691,8.15625L149.76,8.15625L149.76,6.89645L147.691,6.89645L147.691,2.67187L150.029,2.67187L150.029,1.40625L144,1.40625L144,2.67187L146.373,2.67187L146.373,6.89645L144.269,6.89645L144.269,8.15625L146.373,8.15625L146.373,12.8379L143.765,13.4883ZM150.14,6.65625L150.14,7.97465L152.566,7.97465C152.39,12.1465,151.886,14.7071,148.23,16.0546C148.5,16.289,148.875,16.7754,149.021,17.0742C152.982,15.5684,153.668,12.6504,153.885,7.97465L155.918,7.97465L155.918,15.0585C155.918,16.5059,156.222,16.9395,157.5,16.9395C157.769,16.9395,158.812,16.9395,159.064,16.9395C160.218,16.9395,160.541,16.2364,160.67,13.6758C160.289,13.5821,159.732,13.3594,159.445,13.0957C159.392,15.3046,159.316,15.6562,158.959,15.6562C158.724,15.6562,157.881,15.6562,157.699,15.6562C157.318,15.6562,157.248,15.5684,157.248,15.0411L157.248,7.97465L160.4,7.97465L160.4,6.65625L150.14,6.65625ZM162.861,1.29492C164.068,1.85156,165.545,2.74805,166.283,3.39255L167.056,2.22656C166.301,1.61133,164.789,0.779297,163.617,0.292969L162.861,1.29492ZM161.912,6.23435C163.078,6.73245,164.519,7.57035,165.24,8.16215L165.996,7.05465C165.258,6.46875,163.781,5.70115,162.644,5.23825L161.912,6.23435ZM162.521,15.7851L163.658,16.7344C164.718,15.0059,165.978,12.6739,166.933,10.6992L165.943,9.79105C164.9,11.8946,163.476,14.3496,162.521,15.7851ZM168.099,16.3242C168.586,16.1015,169.342,15.9726,176.074,15.0938C176.437,15.7851,176.724,16.4355,176.906,16.9571L178.095,16.3242C177.551,14.871,176.185,12.6562,174.908,11.0215L173.824,11.5605C174.369,12.2871,174.926,13.125,175.429,13.9629L169.722,14.6133C170.836,13.0489,171.972,11.0566,172.91,9.06445L178.019,9.06445L178.019,7.78125L173.267,7.78125L173.267,4.56445L177.281,4.56445L177.281,3.28125L173.267,3.28125L173.267,0.0878906L171.92,0.0878906L171.92,3.28125L168.047,3.28125L168.047,4.56445L171.92,4.56445L171.92,7.78125L167.256,7.78125L167.256,9.06445L171.287,9.06445C170.39,11.168,169.183,13.1601,168.785,13.7168C168.334,14.4082,167.994,14.836,167.636,14.9296C167.795,15.3223,168.029,16.0254,168.099,16.3242Z" fill="#FF6699" fill-opacity="1"/></g></svg>