<svg xmlns="http://www.w3.org/2000/svg" xmlns:xlink="http://www.w3.org/1999/xlink" fill="none" version="1.1" width="58.72652053833008" height="11.371099472045898" viewBox="0 0 58.72652053833008 11.371099472045898"><g><path d="M0.933599,0.95313C1.59375,1.53906,2.4336,2.36719,2.8086,2.90625L3.46875,2.25781C3.04688,1.74219,2.20703,0.95313,1.5586,0.375L0.933599,0.95313ZM1.84766,11.1406L1.84766,11.1289C2.01563,10.9023,2.35156,10.6484,4.34375,9.1914C4.2461,9.0039,4.11719,8.6328,4.05469,8.3828L2.8086,9.2656L2.8086,3.8125L0,3.8125L0,4.6875L1.91797,4.6875L1.91797,9.2539C1.91797,9.8633,1.54688,10.2891,1.33203,10.457C1.5,10.6133,1.75,10.9492,1.84766,11.1406ZM4.47656,0.9375L4.47656,1.83984L9.23828,1.83984L9.23828,4.9375L4.70313,4.9375L4.70313,9.7031C4.70313,10.9023,5.13672,11.1875,6.48047,11.1875C6.78125,11.1875,8.92969,11.1875,9.23828,11.1875C10.5469,11.1875,10.8594,10.6484,10.9922,8.6328C10.7265,8.5703,10.3437,8.4063,10.1172,8.2344C10.0547,10,9.93752,10.3242,9.19141,10.3242C8.72266,10.3242,6.89844,10.3242,6.53906,10.3242C5.77344,10.3242,5.62891,10.2148,5.62891,9.7148L5.62891,5.80469L9.23828,5.80469L9.23828,6.45313L10.1406,6.45313L10.1406,0.9375L4.47656,0.9375ZM18.0234,0.30859C18.4336,0.94141,18.8515,1.79297,19.0195,2.32813L19.8945,1.97656C19.7148,1.44141,19.2617,0.625,18.8398,0.00390983L18.0234,0.30859ZM14.8672,0.10156C14.1953,1.95313,13.0664,3.78125,11.8789,5.00391C12.0469,5.21875,12.3125,5.73438,12.4062,5.94922C12.8164,5.50781,13.2109,5.00391,13.5937,4.44922L13.5937,11.1875L14.4961,11.1875L14.4961,2.98047C14.9648,2.16016,15.3945,1.25781,15.7304,0.36719L14.8672,0.10156ZM15.2148,10.0859L15.2148,10.9375L23.0039,10.9375L23.0039,10.0859L19.6094,10.0859L19.6094,6.9375L22.4648,6.9375L22.4648,6.08594L19.6094,6.08594L19.6094,3.29297L22.8242,3.29297L22.8242,2.4375L15.5156,2.4375L15.5156,3.29297L18.707,3.29297L18.707,6.08594L15.9219,6.08594L15.9219,6.9375L18.707,6.9375L18.707,10.0859L15.2148,10.0859ZM31.8711,3.875L31.8711,4.99219L26.8672,4.99219L26.8672,3.875L31.8711,3.875ZM31.8711,3.1875L26.8672,3.1875L26.8672,1.98047L31.8711,1.98047L31.8711,3.1875ZM31.8711,5.6875L31.8711,6.7109L31.668,6.8867L26.8672,6.8867L26.8672,5.6875L31.8711,5.6875ZM24.3828,6.8867L24.3828,7.6875L30.6133,7.6875C28.7148,8.9961,26.4219,9.9531,23.9531,10.5898C24.1328,10.7813,24.3945,11.1406,24.5039,11.3711C27.2383,10.543,29.7851,9.3906,31.8711,7.7617L31.8711,9.9648C31.8711,10.207,31.789,10.2773,31.5234,10.3008C31.2734,10.3125,30.3594,10.3125,29.4101,10.2773C29.543,10.5313,29.6875,10.9375,29.7344,11.1875C30.9492,11.1875,31.7265,11.1758,32.1601,11.0195C32.6054,10.8789,32.75,10.5781,32.75,9.9766L32.75,7.0313C33.4804,6.34375,34.1406,5.59375,34.7148,4.77344L33.9375,4.37109C33.5898,4.89453,33.1797,5.39063,32.75,5.85156L32.75,1.1875L29.4101,1.1875C29.6054,0.87109,29.7969,0.50781,29.9765,0.16406L28.9453,0C28.8476,0.33984,28.6562,0.78906,28.4648,1.1875L25.9804,1.1875L25.9804,6.8867L24.3828,6.8867ZM44.4961,0.29688L43.6797,0.45703C44.2187,2.84375,45.0117,4.32422,46.4883,5.59375C46.6211,5.31641,46.8828,5.01563,47.1133,4.83594C45.7578,3.73438,45,2.46484,44.4961,0.29688ZM38.5547,0.10156C37.957,1.94922,36.9336,3.78516,35.8437,4.98047C36.0117,5.18359,36.2734,5.65234,36.3711,5.875C36.7187,5.47266,37.0547,5.03125,37.3789,4.53125L37.3789,11.3203L38.2812,11.3203L38.2812,2.98828C38.7109,2.14453,39.0937,1.25391,39.4062,0.35938L38.5547,0.10156ZM41.4844,0.37109C41.0039,2.26953,40.0898,3.89453,38.832,4.91016C39.0117,5.08984,39.3008,5.49609,39.4062,5.70313C39.6836,5.47266,39.9492,5.21094,40.1875,4.92188L40.1875,5.6875L41.7226,5.6875C41.4726,8.0938,40.75,9.7344,39.0703,10.668C39.2617,10.8242,39.5742,11.1602,39.6953,11.332C41.4844,10.2305,42.3125,8.4297,42.6133,5.6875L44.7617,5.6875C44.6172,8.7969,44.4375,9.9844,44.1836,10.2656C44.0625,10.4141,43.9687,10.4375,43.7656,10.4375C43.5586,10.4375,43.043,10.4258,42.5039,10.3789C42.6367,10.6094,42.7422,10.957,42.7578,11.2188C43.3086,11.2461,43.8476,11.2461,44.1601,11.2188C44.4961,11.1836,44.7344,11.0977,44.9531,10.8242C45.3242,10.3906,45.4922,9.0469,45.6601,5.25781Q45.6719,5.13672,45.6719,4.84766L40.2461,4.84766C41.1953,3.71094,41.914,2.23047,42.3711,0.56641L41.4844,0.37109ZM52.3672,7.875L52.3672,8.6875L56.9531,8.6875L56.9531,7.875L52.3672,7.875ZM53.3398,2.4375C53.2539,3.62891,53.1015,5.24609,52.9453,6.20703L53.1836,6.20703L57.8047,6.21875C57.5742,8.9297,57.3125,9.9961,57,10.3086C56.8789,10.4258,56.7617,10.4531,56.543,10.4375C56.3281,10.4375,55.789,10.4375,55.2109,10.3789C55.3554,10.6094,55.4414,10.957,55.4648,11.207C56.039,11.2461,56.5937,11.2461,56.9023,11.2188C57.2656,11.1953,57.4922,11.1133,57.7187,10.8477C58.1523,10.4141,58.4297,9.1563,58.7031,5.83594Q58.7148,5.70313,58.7265,5.4375L57.2383,5.4375C57.4336,3.94531,57.625,2.13672,57.7187,0.88672L57.0859,0.80859L56.9414,0.86328L52.7656,0.86328L52.7656,1.6875L56.7851,1.6875C56.6875,2.75,56.5312,4.22266,56.3867,5.4375L53.8906,5.4375C54,4.54688,54.1211,3.41406,54.1797,2.49609L53.3398,2.4375ZM48.0586,0.6875L48.0586,1.51563L49.5234,1.51563C49.1875,3.38672,48.6484,5.11328,47.7969,6.32031C47.9375,6.5742,48.1445,7.1055,48.2031,7.3438C48.4297,7.0273,48.6484,6.6875,48.8398,6.30859L48.8398,10.7383L49.6211,10.7383L49.6211,9.7422L51.8281,9.7422L51.8281,4.4375L49.6328,4.4375C49.9453,3.52344,50.1953,2.53125,50.3867,1.51563L52.1758,1.51563L52.1758,0.6875L48.0586,0.6875ZM49.6211,5.25391L51.0351,5.25391L51.0351,8.9375L49.6211,8.9375L49.6211,5.25391Z" fill="#61666D" fill-opacity="1"/></g></svg>