<svg xmlns="http://www.w3.org/2000/svg" xmlns:xlink="http://www.w3.org/1999/xlink" fill="none" version="1.1" width="34.968780517578125" height="11.308643341064453" viewBox="0 0 34.968780517578125 11.308643341064453"><g><path d="M1.10547,10.8671C1.57422,10.6679,2.24609,10.6328,8.78516,10.1015C9.02734,10.4843,9.23047,10.8398,9.375,11.164L10.2383,10.6796C9.6875,9.59374,8.52344,7.95314,7.42969,6.73434L6.625,7.12894C7.17969,7.75784,7.75391,8.52344,8.25781,9.26174L2.30469,9.70704C3.20703,8.68364,4.12891,7.39844,4.92188,6.05468L10.7774,6.05468L10.7774,5.15234L5.83203,5.15234L5.83203,2.80468L9.89059,2.80468L9.89059,1.90234L5.83203,1.90234L5.83203,0L4.88672,0L4.88672,1.90234L0.925781,1.90234L0.925781,2.80468L4.88672,2.80468L4.88672,5.15234L0,5.15234L0,6.05468L3.80469,6.05468C3.03906,7.44924,2.01562,8.78124,1.69531,9.15234C1.33203,9.59374,1.05859,9.87894,0.792969,9.94144C0.914062,10.1992,1.05859,10.6679,1.10547,10.8671ZM19.875,3.58984C20.4961,4.03125,21.1953,4.67968,21.5195,5.14453L22.168,4.64062C21.832,4.17578,21.1094,3.55468,20.4844,3.15234L19.875,3.58984ZM18.6602,3.07812L18.6602,4.88672L18.6484,5.3125L15.8399,5.3125L15.8399,6.15234L18.5781,6.15234C18.375,7.64844,17.6914,9.37114,15.5039,10.7265C15.7344,10.8828,16.0234,11.1132,16.1758,11.3086C17.9766,10.1875,18.8164,8.80074,19.2031,7.42964C19.8125,9.17964,20.7734,10.5234,22.2149,11.2578C22.336,11.0273,22.6094,10.7031,22.8125,10.5351C21.1445,9.79684,20.1133,8.18364,19.586,6.15234L22.6719,6.15234L22.6719,5.3125L19.5,5.3125L19.5,4.88672L19.5,3.07812L18.6602,3.07812ZM18.961,0.0468712L18.961,1.08984L15.8399,1.08984L15.8399,0.0468712L14.9531,0.0468712L14.9531,1.08984L12.1094,1.08984L12.1094,1.90234L14.9531,1.90234L14.9531,2.90625L15.8399,2.90625L15.8399,1.90234L18.961,1.90234L18.961,2.84375L19.8516,2.84375L19.8516,1.90234L22.6719,1.90234L22.6719,1.08984L19.8516,1.08984L19.8516,0.0468712L18.961,0.0468712ZM15.2656,3.15234C15.0117,3.44531,14.7031,3.75,14.3399,4.04297C14.0156,3.66406,13.5977,3.29687,13.082,2.95703L12.4922,3.44531C12.9961,3.78515,13.3828,4.14062,13.6797,4.51953C13.1172,4.89843,12.4805,5.2539,11.8555,5.51953C12.0234,5.67578,12.2774,5.9375,12.3984,6.11718C12.9844,5.85547,13.5742,5.53125,14.125,5.16797C14.3164,5.51953,14.4492,5.89062,14.5352,6.26562C13.9453,7.10154,12.793,8.01174,11.832,8.42574C12.0234,8.59374,12.2539,8.89844,12.375,9.11714C13.1406,8.69144,14.0156,7.98824,14.6641,7.27344L14.6758,7.75784C14.6758,8.99614,14.582,9.85934,14.293,10.2109C14.1992,10.332,14.0899,10.3906,13.9219,10.4023C13.6563,10.4414,13.2031,10.4414,12.6602,10.4023C12.8164,10.6328,12.9258,10.957,12.9375,11.207C13.4297,11.2343,13.875,11.2343,14.2695,11.1601C14.5352,11.125,14.75,11.0039,14.9063,10.8242C15.3867,10.2578,15.5195,9.19144,15.5195,7.80464C15.5195,6.72654,15.4102,5.66406,14.8086,4.67968C15.2656,4.32422,15.6719,3.94531,15.9961,3.5664L15.2656,3.15234ZM33.5664,2.26953C33.2774,4.08203,32.7734,5.66406,32.125,6.98824C31.5156,5.625,31.1055,4.01953,30.8438,2.26953L33.5664,2.26953ZM29.4375,1.40234L29.4375,2.26953L30.0391,2.26953C30.375,4.42578,30.8672,6.35156,31.6211,7.90624C30.9024,9.08204,30.0508,9.98824,29.1133,10.5898C29.3164,10.7617,29.5703,11.0703,29.7031,11.289C30.5899,10.664,31.4063,9.84374,32.0899,8.80074C32.6914,9.79294,33.4336,10.6015,34.3477,11.2031C34.4883,10.9687,34.7656,10.6406,34.9688,10.4804C34,9.89064,33.2188,9.03514,32.6055,7.95704C33.5313,6.27734,34.2031,4.14453,34.5156,1.52343L33.961,1.3789L33.8047,1.40234L29.4375,1.40234ZM23.8203,8.71484L24.0234,9.59764L27.6367,8.96094L27.6367,11.2656L28.5156,11.2656L28.5156,8.80074L29.582,8.59374L29.5352,7.80864L28.5156,7.98044L28.5156,1.40234L29.3906,1.40234L29.3906,0.58984L23.9414,0.58984L23.9414,1.40234L24.7461,1.40234L24.7461,8.53514L23.8203,8.71484ZM25.6094,1.40234L27.6367,1.40234L27.6367,3.15234L25.6094,3.15234L25.6094,1.40234ZM25.6094,3.93359L27.6367,3.93359L27.6367,5.65234L25.6094,5.65234L25.6094,3.93359ZM25.6094,6.44534L27.6367,6.44534L27.6367,8.07424L25.6094,8.39844L25.6094,6.44534Z" fill="#FF6699" fill-opacity="1"/></g></svg>