<svg xmlns="http://www.w3.org/2000/svg" xmlns:xlink="http://www.w3.org/1999/xlink" fill="none" version="1.1" width="168" height="17" viewBox="0 0 168 17"><g><path d="M4.69141,3.86328C4.52344,4.48438,4.30469,5.12891,4.05469,5.75L0.753906,5.75L0.753906,6.61719L3.66016,6.61719C2.89062,8.20703,1.83594,9.6875,0.453125,10.6484C0.597656,10.8594,0.824219,11.2539,0.921875,11.5C1.42578,11.1289,1.89453,10.7109,2.3125,10.2617L2.3125,15.082L3.21484,15.082L3.21484,9.17578C3.77734,8.38281,4.26953,7.51172,4.67969,6.61719L11.2656,6.61719L11.2656,5.75L5.05078,5.75C5.26562,5.20312,5.45703,4.64453,5.625,4.09375L4.69141,3.86328ZM7.17578,7.26172L7.17578,9.66016L4.47266,9.66016L4.47266,10.5L7.17578,10.5L7.17578,14L3.99609,14L3.99609,14.8438L11.2539,14.8438L11.2539,14L8.07422,14L8.07422,10.5L10.8008,10.5L10.8008,9.66016L8.07422,9.66016L8.07422,7.26172L7.17578,7.26172ZM20.5078,7.4375C21.1289,7.87891,21.8281,8.52734,22.1523,8.99219L22.8008,8.48828C22.4648,8.02344,21.7422,7.40234,21.1172,7L20.5078,7.4375ZM19.293,6.92578L19.293,8.73438L19.2812,9.16016L16.4727,9.16016L16.4727,10L19.2109,10C19.0078,11.4961,18.3242,13.2188,16.1367,14.5742C16.3672,14.7305,16.6562,14.9609,16.8086,15.1562C18.6094,14.0352,19.4492,12.6484,19.8359,11.2773C20.4453,13.0273,21.4062,14.3711,22.8477,15.1055C22.9688,14.875,23.2422,14.5508,23.4453,14.3828C21.7773,13.6445,20.7461,12.0312,20.2188,10L23.3047,10L23.3047,9.16016L20.1328,9.16016L20.1328,8.73438L20.1328,6.92578L19.293,6.92578ZM19.5938,3.89453L19.5938,4.9375L16.4727,4.9375L16.4727,3.89453L15.5859,3.89453L15.5859,4.9375L12.7422,4.9375L12.7422,5.75L15.5859,5.75L15.5859,6.75391L16.4727,6.75391L16.4727,5.75L19.5938,5.75L19.5938,6.69141L20.4844,6.69141L20.4844,5.75L23.3047,5.75L23.3047,4.9375L20.4844,4.9375L20.4844,3.89453L19.5938,3.89453ZM15.8984,7C15.6445,7.29297,15.3359,7.59766,14.9727,7.89062C14.6484,7.51172,14.2305,7.14453,13.7148,6.80469L13.125,7.29297C13.6289,7.63281,14.0156,7.98828,14.3125,8.36719C13.75,8.74609,13.1133,9.10156,12.4883,9.36719C12.6562,9.52344,12.9102,9.78516,13.0312,9.96484C13.6172,9.70312,14.207,9.37891,14.7578,9.01562C14.9492,9.36719,15.082,9.73828,15.168,10.1133C14.5781,10.9492,13.4258,11.8594,12.4648,12.2734C12.6562,12.4414,12.8867,12.7461,13.0078,12.9648C13.7734,12.5391,14.6484,11.8359,15.2969,11.1211L15.3086,11.6055C15.3086,12.8438,15.2148,13.707,14.9258,14.0586C14.832,14.1797,14.7227,14.2383,14.5547,14.25C14.2891,14.2891,13.8359,14.2891,13.293,14.25C13.4492,14.4805,13.5586,14.8047,13.5703,15.0547C14.0625,15.082,14.5078,15.082,14.9023,15.0078C15.168,14.9727,15.3828,14.8516,15.5391,14.6719C16.0195,14.1055,16.1523,13.0391,16.1523,11.6523C16.1523,10.5742,16.043,9.51172,15.4414,8.52734C15.8984,8.17188,16.3047,7.79297,16.6289,7.41406L15.8984,7ZM34.1992,6.11719C33.9102,7.92969,33.4062,9.51172,32.7578,10.8359C32.1484,9.47266,31.7383,7.86719,31.4766,6.11719L34.1992,6.11719ZM30.0703,5.25L30.0703,6.11719L30.6719,6.11719C31.0078,8.27344,31.5,10.1992,32.2539,11.7539C31.5352,12.9297,30.6836,13.8359,29.7461,14.4375C29.9492,14.6094,30.2031,14.918,30.3359,15.1367C31.2227,14.5117,32.0391,13.6914,32.7227,12.6484C33.3242,13.6406,34.0664,14.4492,34.9805,15.0508C35.1211,14.8164,35.3984,14.4883,35.6016,14.3281C34.6328,13.7383,33.8516,12.8828,33.2383,11.8047C34.1641,10.125,34.8359,7.99219,35.1484,5.37109L34.5938,5.22656L34.4375,5.25L30.0703,5.25ZM24.4531,12.5625L24.6562,13.4453L28.2695,12.8086L28.2695,15.1133L29.1484,15.1133L29.1484,12.6484L30.2148,12.4414L30.168,11.6562L29.1484,11.8281L29.1484,5.25L30.0234,5.25L30.0234,4.4375L24.5742,4.4375L24.5742,5.25L25.3789,5.25L25.3789,12.3828L24.4531,12.5625ZM26.2422,5.25L28.2695,5.25L28.2695,7L26.2422,7L26.2422,5.25ZM26.2422,7.78125L28.2695,7.78125L28.2695,9.5L26.2422,9.5L26.2422,7.78125ZM26.2422,10.293L28.2695,10.293L28.2695,11.9219L26.2422,12.2461L26.2422,10.293ZM43.6914,4.25391C44.0273,4.79297,44.375,5.52344,44.543,6L42.1445,6C42.418,5.40234,42.6719,4.76562,42.875,4.14453L42.0234,3.92969C41.4844,5.70312,40.5703,7.48047,39.5156,8.65625C39.6836,8.78906,39.9453,9.05469,40.1016,9.22266L38.9023,9.60547L38.9023,7.09375L40.2461,7.09375L40.2461,6.25L38.9023,6.25L38.9023,3.87109L38.0273,3.87109L38.0273,6.25L36.4766,6.25L36.4766,7.09375L38.0273,7.09375L38.0273,9.87891L36.3828,10.3867L36.6094,11.2852L38.0273,10.8242L38.0273,14.0273C38.0273,14.2031,37.9531,14.25,37.8086,14.25C37.668,14.2656,37.1992,14.2656,36.6836,14.2383C36.8008,14.5039,36.9219,14.8867,36.9453,15.1172C37.7148,15.1172,38.1836,15.0938,38.4805,14.9375C38.7812,14.793,38.9023,14.5391,38.9023,14.0273L38.9023,10.5234L40.2695,10.0664L40.1523,9.26953L40.1875,9.30469C40.5234,8.91016,40.8594,8.44922,41.1719,7.91406L41.1719,15.1211L42.0352,15.1211L42.0352,14.25L47.4453,14.25L47.4453,13.4102L44.9141,13.4102L44.9141,11.75L47.0156,11.75L47.0156,10.9492L44.9141,10.9492L44.9141,9.30469L47.0273,9.30469L47.0273,8.5L44.9141,8.5L44.9141,6.82812L47.207,6.82812L47.207,6L44.6641,6L45.3594,5.70312C45.2031,5.22266,44.832,4.50391,44.4727,3.95312L43.6914,4.25391ZM42.0352,9.30469L44.0625,9.30469L44.0625,10.9492L42.0352,10.9492L42.0352,9.30469ZM42.0352,8.5L42.0352,6.82812L44.0625,6.82812L44.0625,8.5L42.0352,8.5ZM42.0352,11.75L44.0625,11.75L44.0625,13.4102L42.0352,13.4102L42.0352,11.75ZM54.9219,9.74219L54.9219,14.6719L55.7266,14.6719L55.7266,9.74219L54.9219,9.74219ZM52.7969,9.73047L52.7969,11.0117C52.7969,12.1523,52.6406,13.5312,51.168,14.5625C51.3711,14.6953,51.6719,14.9727,51.8008,15.1406C53.4219,13.9922,53.6133,12.3906,53.6133,11.0352L53.6133,9.73047L52.7969,9.73047ZM57.0586,9.73047L57.0586,13.6797C57.0586,14.4219,57.1172,14.6133,57.3008,14.7812C57.4531,14.9258,57.7188,14.9844,57.957,14.9844C58.0781,14.9844,58.4023,14.9844,58.5469,14.9844C58.75,14.9844,58.9922,14.9375,59.1211,14.8516C59.293,14.7578,59.3867,14.6133,59.4453,14.3828C59.5078,14.1641,59.543,13.5078,59.5664,12.9609C59.3516,12.8867,59.0859,12.7617,58.9297,12.6133C58.918,13.207,58.9062,13.6562,58.8828,13.8672C58.8594,14.0664,58.8242,14.1523,58.7617,14.2031C58.7031,14.2383,58.6055,14.25,58.5,14.25C58.4023,14.25,58.2461,14.25,58.1641,14.25C58.0781,14.25,58.0078,14.2383,57.9727,14.2031C57.9102,14.1406,57.8984,14.0156,57.8984,13.7656L57.8984,9.73047L57.0586,9.73047ZM49.0195,4.66016C49.7383,5.09766,50.625,5.74609,51.0586,6.21484L51.5977,5.50781C51.168,5.04688,50.2656,4.41797,49.5469,4.01953L49.0195,4.66016ZM48.4766,8.02734C49.2461,8.39062,50.1953,8.97266,50.6641,9.40625L51.168,8.63672C50.6875,8.21484,49.7266,7.66797,48.957,7.34766L48.4766,8.02734ZM48.7773,14.4219L49.5352,15.0273C50.2422,13.9023,51.082,12.3516,51.7188,11.0352L51.0703,10.4258C50.375,11.8281,49.4258,13.4688,48.7773,14.4219ZM54.707,4.06641C54.8984,4.48047,55.0898,5,55.2344,5.4375L51.8125,5.4375L51.8125,6.25L54.1797,6.25C53.6758,6.92188,52.9922,7.80469,52.7617,8.02734C52.5352,8.24219,52.1875,8.32812,51.957,8.37891C52.0312,8.58984,52.1523,9.04688,52.1992,9.26953C52.5469,9.13281,53.0977,9.08594,58.043,8.73828C58.2812,9.07422,58.4883,9.38281,58.6328,9.64453L59.3633,9.14844C58.918,8.41406,57.9961,7.27344,57.2383,6.4375L56.5664,6.86328C56.8555,7.19531,57.1797,7.59375,57.4805,7.98047L53.7109,8.20312C54.1797,7.64453,54.7422,6.875,55.1992,6.25L59.3398,6.25L59.3398,5.4375L56.1602,5.4375C56.0273,4.97656,55.7734,4.35938,55.5234,3.86328L54.707,4.06641ZM65.1484,5.04297L65.1484,8.39453L63.8516,8.92188L64.1875,9.70312L65.1484,9.30469L65.1484,13.1367C65.1484,14.4922,65.543,14.8164,66.9219,14.8164C67.2344,14.8164,69.5508,14.8164,69.8867,14.8164C71.1367,14.8164,71.4336,14.2891,71.5664,12.5469C71.3281,12.5117,70.9688,12.3555,70.7617,12.1914C70.6797,13.6562,70.5586,14,69.8516,14C69.3711,14,67.3555,14,66.957,14C66.1562,14,66.0117,13.8633,66.0117,13.1602L66.0117,8.94531L67.6172,8.27734L67.6172,12.3203L68.4727,12.3203L68.4727,7.92578L70.1523,7.21094C70.1523,9.10938,70.125,10.4062,70.0664,10.6875C70.0078,10.957,69.8984,11,69.707,11C69.5859,11,69.1914,11,68.9023,10.9805C69.0117,11.1836,69.082,11.5312,69.1172,11.7695C69.4531,11.7695,69.9336,11.7695,70.2461,11.6758C70.6055,11.5898,70.8359,11.375,70.9062,10.8867C70.9922,10.4297,71.0156,8.67578,71.0156,6.42188L71.0625,6.24609L70.4258,5.99609L70.2578,6.13672L70.0781,6.3125L68.4727,7.00781L68.4727,3.87891L67.6172,3.87891L67.6172,7.36719L66.0117,8.03125L66.0117,5.04297L65.1484,5.04297ZM60.3945,12.1797L60.7539,13.1367C61.8086,12.6367,63.1797,11.9883,64.4609,11.375L64.2578,10.582L62.8906,11.1445L62.8906,7.75L64.3047,7.75L64.3047,6.89844L62.8906,6.89844L62.8906,4.02734L62.0391,4.02734L62.0391,6.89844L60.5039,6.89844L60.5039,7.75L62.0391,7.75L62.0391,11.5078C61.4141,11.7578,60.8516,12,60.3945,12.1797ZM77.207,6.625L77.207,13.8867L75.7422,13.8867L75.7422,14.75L83.543,14.75L83.543,13.8867L80.7695,13.8867L80.7695,9L83.3633,9L83.3633,8.125L80.7695,8.125L80.7695,3.96484L79.8594,3.96484L79.8594,13.8867L78.0938,13.8867L78.0938,6.625L77.207,6.625ZM72.4062,12.2109L72.7422,13.1289C73.8711,12.6562,75.3477,12.0117,76.7148,11.3906L76.5586,10.5703L75.0234,11.1914L75.0234,7.75L76.5938,7.75L76.5938,6.89844L75.0234,6.89844L75.0234,4.03906L74.1836,4.03906L74.1836,6.89844L72.5391,6.89844L72.5391,7.75L74.1836,7.75L74.1836,11.5273C73.5117,11.8008,72.8984,12.0352,72.4062,12.2109ZM89.1094,6.57812C88.8828,8.33203,88.4609,9.75781,87.8867,10.9258C87.3945,10.082,87,9,86.6992,7.625C86.8047,7.28906,86.9141,6.94141,87.0234,6.57812L89.1094,6.57812ZM86.6367,3.90234C86.3125,6.24219,85.5703,8.57812,84.6211,9.87109C84.8633,9.99219,85.1875,10.2422,85.3555,10.3906C85.668,9.95703,85.9531,9.43359,86.2188,8.83984C86.543,10.0312,86.9375,11,87.4062,11.7695C86.6133,12.9961,85.6055,13.8633,84.4062,14.4414C84.6328,14.5703,84.9922,14.9375,85.1484,15.1445C86.2539,14.5703,87.2031,13.7539,87.9805,12.5977C89.4453,14.3672,91.3789,14.75,93.4414,14.75L95.207,14.75C95.2656,14.4883,95.4219,14.043,95.5781,13.8164C95.1094,13.8281,93.8633,13.8281,93.4922,13.8281C91.6445,13.8281,89.832,13.4805,88.4727,11.793C89.2891,10.2773,89.8555,8.34375,90.1172,5.88281L89.5312,5.71484L89.3516,5.75L87.2383,5.75C87.3711,5.22656,87.4922,4.67578,87.5859,4.12891L86.6367,3.90234ZM91.3789,3.87891L91.3789,12.9102L92.3398,12.9102L92.3398,7.72266C93.1562,8.70312,94.0312,9.87109,94.4492,10.6406L95.2422,10.1289C94.7031,9.23828,93.5625,7.83594,92.6523,6.80469L92.3398,6.99219L92.3398,3.87891L91.3789,3.87891ZM96.6719,4.75L96.6719,5.65234L104.961,5.65234L104.961,13.875C104.961,14.1484,104.879,14.2266,104.613,14.25C104.328,14.25,103.344,14.2656,102.383,14.2148C102.527,14.4805,102.695,14.9258,102.754,15.1875C103.941,15.1875,104.781,15.1875,105.262,15.0312C105.73,14.875,105.898,14.5625,105.898,13.8867L105.898,5.65234L107.375,5.65234L107.375,4.75L96.6719,4.75ZM98.7695,8.36719L101.926,8.36719L101.926,11.1367L98.7695,11.1367L98.7695,8.36719ZM97.8945,7.5L97.8945,13.043L98.7695,13.043L98.7695,12L102.816,12L102.816,7.5L97.8945,7.5ZM116.508,7.4375C117.129,7.87891,117.828,8.52734,118.152,8.99219L118.801,8.48828C118.465,8.02344,117.742,7.40234,117.117,7L116.508,7.4375ZM115.293,6.92578L115.293,8.73438L115.281,9.16016L112.473,9.16016L112.473,10L115.211,10C115.008,11.4961,114.324,13.2188,112.137,14.5742C112.367,14.7305,112.656,14.9609,112.809,15.1562C114.609,14.0352,115.449,12.6484,115.836,11.2773C116.445,13.0273,117.406,14.3711,118.848,15.1055C118.969,14.875,119.242,14.5508,119.445,14.3828C117.777,13.6445,116.746,12.0312,116.219,10L119.305,10L119.305,9.16016L116.133,9.16016L116.133,8.73438L116.133,6.92578L115.293,6.92578ZM115.594,3.89453L115.594,4.9375L112.473,4.9375L112.473,3.89453L111.586,3.89453L111.586,4.9375L108.742,4.9375L108.742,5.75L111.586,5.75L111.586,6.75391L112.473,6.75391L112.473,5.75L115.594,5.75L115.594,6.69141L116.484,6.69141L116.484,5.75L119.305,5.75L119.305,4.9375L116.484,4.9375L116.484,3.89453L115.594,3.89453ZM111.898,7C111.645,7.29297,111.336,7.59766,110.973,7.89062C110.648,7.51172,110.23,7.14453,109.715,6.80469L109.125,7.29297C109.629,7.63281,110.016,7.98828,110.312,8.36719C109.75,8.74609,109.113,9.10156,108.488,9.36719C108.656,9.52344,108.91,9.78516,109.031,9.96484C109.617,9.70312,110.207,9.37891,110.758,9.01562C110.949,9.36719,111.082,9.73828,111.168,10.1133C110.578,10.9492,109.426,11.8594,108.465,12.2734C108.656,12.4414,108.887,12.7461,109.008,12.9648C109.773,12.5391,110.648,11.8359,111.297,11.1211L111.309,11.6055C111.309,12.8438,111.215,13.707,110.926,14.0586C110.832,14.1797,110.723,14.2383,110.555,14.25C110.289,14.2891,109.836,14.2891,109.293,14.25C109.449,14.4805,109.559,14.8047,109.57,15.0547C110.062,15.082,110.508,15.082,110.902,15.0078C111.168,14.9727,111.383,14.8516,111.539,14.6719C112.02,14.1055,112.152,13.0391,112.152,11.6523C112.152,10.5742,112.043,9.51172,111.441,8.52734C111.898,8.17188,112.305,7.79297,112.629,7.41406L111.898,7ZM130.199,6.11719C129.91,7.92969,129.406,9.51172,128.758,10.8359C128.148,9.47266,127.738,7.86719,127.477,6.11719L130.199,6.11719ZM126.07,5.25L126.07,6.11719L126.672,6.11719C127.008,8.27344,127.5,10.1992,128.254,11.7539C127.535,12.9297,126.684,13.8359,125.746,14.4375C125.949,14.6094,126.203,14.918,126.336,15.1367C127.223,14.5117,128.039,13.6914,128.723,12.6484C129.324,13.6406,130.066,14.4492,130.98,15.0508C131.121,14.8164,131.398,14.4883,131.602,14.3281C130.633,13.7383,129.852,12.8828,129.238,11.8047C130.164,10.125,130.836,7.99219,131.148,5.37109L130.594,5.22656L130.438,5.25L126.07,5.25ZM120.453,12.5625L120.656,13.4453L124.27,12.8086L124.27,15.1133L125.148,15.1133L125.148,12.6484L126.215,12.4414L126.168,11.6562L125.148,11.8281L125.148,5.25L126.023,5.25L126.023,4.4375L120.574,4.4375L120.574,5.25L121.379,5.25L121.379,12.3828L120.453,12.5625ZM122.242,5.25L124.27,5.25L124.27,7L122.242,7L122.242,5.25ZM122.242,7.78125L124.27,7.78125L124.27,9.5L122.242,9.5L122.242,7.78125ZM122.242,10.293L124.27,10.293L124.27,11.9219L122.242,12.2461L122.242,10.293ZM140.422,7.6875L140.422,8.80469L135.418,8.80469L135.418,7.6875L140.422,7.6875ZM140.422,7L135.418,7L135.418,5.79297L140.422,5.79297L140.422,7ZM140.422,9.5L140.422,10.5234L140.219,10.6992L135.418,10.6992L135.418,9.5L140.422,9.5ZM132.934,10.6992L132.934,11.5L139.164,11.5C137.266,12.8086,134.973,13.7656,132.504,14.4023C132.684,14.5938,132.945,14.9531,133.055,15.1836C135.789,14.3555,138.336,13.2031,140.422,11.5742L140.422,13.7773C140.422,14.0195,140.34,14.0898,140.074,14.1133C139.824,14.125,138.91,14.125,137.961,14.0898C138.094,14.3438,138.238,14.75,138.285,15C139.5,15,140.277,14.9883,140.711,14.832C141.156,14.6914,141.301,14.3906,141.301,13.7891L141.301,10.8438C142.031,10.1562,142.691,9.40625,143.266,8.58594L142.488,8.18359C142.141,8.70703,141.73,9.20312,141.301,9.66406L141.301,5L137.961,5C138.156,4.68359,138.348,4.32031,138.527,3.97656L137.496,3.8125C137.398,4.15234,137.207,4.60156,137.016,5L134.531,5L134.531,10.6992L132.934,10.6992ZM153.047,4.10938L152.23,4.26953C152.77,6.65625,153.562,8.13672,155.039,9.40625C155.172,9.12891,155.434,8.82812,155.664,8.64844C154.309,7.54688,153.551,6.27734,153.047,4.10938ZM147.105,3.91406C146.508,5.76172,145.484,7.59766,144.395,8.79297C144.562,8.99609,144.824,9.46484,144.922,9.6875C145.27,9.28516,145.605,8.84375,145.93,8.34375L145.93,15.1328L146.832,15.1328L146.832,6.80078C147.262,5.95703,147.645,5.06641,147.957,4.17188L147.105,3.91406ZM150.035,4.18359C149.555,6.08203,148.641,7.70703,147.383,8.72266C147.562,8.90234,147.852,9.30859,147.957,9.51562C148.234,9.28516,148.5,9.02344,148.738,8.73438L148.738,9.5L150.273,9.5C150.023,11.9062,149.301,13.5469,147.621,14.4805C147.812,14.6367,148.125,14.9727,148.246,15.1445C150.035,14.043,150.863,12.2422,151.164,9.5L153.312,9.5C153.168,12.6094,152.988,13.7969,152.734,14.0781C152.613,14.2266,152.52,14.25,152.316,14.25C152.109,14.25,151.594,14.2383,151.055,14.1914C151.188,14.4219,151.293,14.7695,151.309,15.0312C151.859,15.0586,152.398,15.0586,152.711,15.0312C153.047,14.9961,153.285,14.9102,153.504,14.6367C153.875,14.2031,154.043,12.8594,154.211,9.07031C154.223,8.94922,154.223,8.66016,154.223,8.66016L148.797,8.66016C149.746,7.52344,150.465,6.04297,150.922,4.37891L150.035,4.18359ZM160.918,11.6875L160.918,12.5L165.504,12.5L165.504,11.6875L160.918,11.6875ZM161.891,6.25C161.805,7.44141,161.652,9.05859,161.496,10.0195L161.734,10.0195L166.355,10.0312C166.125,12.7422,165.863,13.8086,165.551,14.1211C165.43,14.2383,165.312,14.2656,165.094,14.25C164.879,14.25,164.34,14.25,163.762,14.1914C163.906,14.4219,163.992,14.7695,164.016,15.0195C164.59,15.0586,165.145,15.0586,165.453,15.0312C165.816,15.0078,166.043,14.9258,166.27,14.6602C166.703,14.2266,166.98,12.9688,167.254,9.64844C167.266,9.51562,167.277,9.25,167.277,9.25L165.789,9.25C165.984,7.75781,166.176,5.94922,166.27,4.69922L165.637,4.62109L165.492,4.67578L161.316,4.67578L161.316,5.5L165.336,5.5C165.238,6.5625,165.082,8.03516,164.938,9.25L162.441,9.25C162.551,8.35938,162.672,7.22656,162.73,6.30859L161.891,6.25ZM156.609,4.5L156.609,5.32812L158.074,5.32812C157.738,7.19922,157.199,8.92578,156.348,10.1328C156.488,10.3867,156.695,10.918,156.754,11.1562C156.98,10.8398,157.199,10.5,157.391,10.1211L157.391,14.5508L158.172,14.5508L158.172,13.5547L160.379,13.5547L160.379,8.25L158.184,8.25C158.496,7.33594,158.746,6.34375,158.938,5.32812L160.727,5.32812L160.727,4.5L156.609,4.5ZM158.172,9.06641L159.586,9.06641L159.586,12.75L158.172,12.75L158.172,9.06641Z" fill="#C9CCD0" fill-opacity="1"/></g></svg>