<svg xmlns="http://www.w3.org/2000/svg" xmlns:xlink="http://www.w3.org/1999/xlink" fill="none" version="1.1" width="15" height="15" viewBox="0 0 15 15"><defs><mask id="master_svg0_1_082" style="mask-type:alpha" maskUnits="userSpaceOnUse"><g><rect x="0" y="0" width="15" height="15" rx="0" fill="#FFFFFF" fill-opacity="1"/></g></mask><mask id="master_svg1_1_086" style="mask-type:alpha" maskUnits="userSpaceOnUse"><g><rect x="0" y="0" width="15" height="15" rx="0" fill="#FFFFFF" fill-opacity="1"/></g></mask><mask id="master_svg2_1_090" style="mask-type:alpha" maskUnits="userSpaceOnUse"><g><rect x="0" y="0" width="15" height="15" rx="0" fill="#FFFFFF" fill-opacity="1"/></g></mask></defs><g><g><g mask="url(#master_svg0_1_082)"><g><path d="M8.203125,11.48952865600586Q8.203125,11.55878065600586,8.189615,11.62670165600586Q8.176105,11.69462265600586,8.149605,11.75860265600586Q8.123105,11.82258365600586,8.084624999999999,11.880163656005859Q8.046155,11.937743656005859,7.997185,11.98671365600586Q7.948215,12.03568365600586,7.890635,12.074153656005858Q7.833055,12.11263365600586,7.769074,12.139133656005859Q7.705094,12.165633656005859,7.637173,12.17914365600586Q7.569252,12.19265365600586,7.5,12.19265365600586Q7.430748,12.19265365600586,7.362827,12.17914365600586Q7.294906,12.165633656005859,7.230926,12.139133656005859Q7.166945,12.11263365600586,7.109365,12.074153656005858Q7.051784,12.03568365600586,7.002816,11.98671365600586Q6.953847,11.937743656005859,6.915373,11.880163656005859Q6.8768987,11.82258365600586,6.8503972,11.75860265600586Q6.8238957,11.69462265600586,6.8103853,11.62670165600586Q6.796875,11.55878065600586,6.796875,11.48952865600586Q6.796875,11.420276656005859,6.8103853,11.352355656005859Q6.8238957,11.284434656005859,6.8503972,11.22045465600586Q6.8768987,11.15647365600586,6.915373,11.09889365600586Q6.953847,11.041312656005859,7.002816,10.992344656005859Q7.051784,10.943375656005859,7.109365,10.90490165600586Q7.166945,10.86642735600586,7.230926,10.83992585600586Q7.294906,10.813424356005859,7.362827,10.79991395600586Q7.430748,10.78640365600586,7.5,10.78640365600586Q7.569252,10.78640365600586,7.637173,10.79991395600586Q7.705094,10.813424356005859,7.769074,10.83992585600586Q7.833055,10.86642735600586,7.890635,10.90490165600586Q7.948215,10.943375656005859,7.997185,10.992344656005859Q8.046155,11.041312656005859,8.084624999999999,11.09889365600586Q8.123105,11.15647365600586,8.149605,11.22045465600586Q8.176105,11.284434656005859,8.189615,11.352355656005859Q8.203125,11.420276656005859,8.203125,11.48952865600586Z" fill="#C9CCD0" fill-opacity="1"/></g></g></g><g><g mask="url(#master_svg1_1_086)"><g><path d="M7.5,14.0625C3.88125,14.0625,0.9375,11.1187,0.9375,7.5C0.9375,3.88125,3.88125,0.9375,7.5,0.9375C11.1187,0.9375,14.0625,3.88125,14.0625,7.5C14.0625,11.1187,11.1187,14.0625,7.5,14.0625ZM7.5,1.879204C4.40062,1.879204,1.879204,4.40062,1.879204,7.5C1.879204,10.59891,4.40062,13.1208,7.5,13.1208C10.59891,13.1208,13.1208,10.59892,13.1208,7.5C13.1208,4.40062,10.59891,1.879204,7.5,1.879204Z" fill="#C9CCD0" fill-opacity="1"/></g></g></g><g><g mask="url(#master_svg2_1_090)"><g><path d="M7.5,9.868575428466798C7.2412399999999995,9.868575428466798,7.03125,9.658575428466797,7.03125,9.399845428466797L7.03125,8.607185428466796C7.03125,7.8402954284667965,7.61717,7.254375428466797,8.13467,6.7373454284667975C8.51388,6.357655428466797,8.90624,5.965785428466797,8.90624,5.653125428466797C8.90624,4.871715428466797,8.2753,4.236091428466797,7.5,4.236091428466797C6.71158,4.236091428466797,6.09375,4.844535428466797,6.09375,5.621255428466797C6.09375,5.879995428466797,5.883765,6.089985428466797,5.625,6.089985428466797C5.366235,6.089985428466797,5.15625,5.879985428466797,5.15625,5.621235428466797C5.15625,4.340625428466797,6.20763,3.298595428466797,7.5,3.298595428466797C8.79237,3.298595428466797,9.84375,4.354685428466797,9.84375,5.653125428466797C9.84375,6.354845428466797,9.311720000000001,6.8863954284667965,8.7975,7.400625428466797C8.38969,7.807495428466797,7.96876,8.228435428466797,7.96876,8.606705428466796L7.96876,9.399355428466798C7.96876,9.658125428466796,7.7587600000000005,9.868575428466798,7.5,9.868575428466798Z" fill="#C9CCD0" fill-opacity="1"/></g></g></g></g></svg>