<svg xmlns="http://www.w3.org/2000/svg" xmlns:xlink="http://www.w3.org/1999/xlink" fill="none" version="1.1" width="40.569007873535156" height="13.266319274902344" viewBox="0 0 40.569007873535156 13.266319274902344"><g><path d="M9.23763,4.52084L9.23763,5.82422L3.39974,5.82422L3.39974,4.52084L9.23763,4.52084ZM9.23763,3.71875L3.39974,3.71875L3.39974,2.31055L9.23763,2.31055L9.23763,3.71875ZM9.23763,6.63542L9.23763,7.82942L9.00065,8.03452L3.39974,8.03452L3.39974,6.63542L9.23763,6.63542ZM0.501299,8.03452L0.501299,8.96872L7.77018,8.96872C5.55534,10.4954,2.88021,11.612,0,12.3548C0.209636,12.5781,0.51497,12.9974,0.642579,13.2663C3.83268,12.3001,6.80404,10.9557,9.23763,9.05532L9.23763,11.6256C9.23763,11.9082,9.14193,11.9902,8.83203,12.0176C8.54036,12.0312,7.47396,12.0312,6.36654,11.9902C6.52148,12.2864,6.6901,12.7604,6.74479,13.0521C8.16211,13.0521,9.06901,13.0384,9.57491,12.8561C10.0944,12.692,10.263,12.3411,10.263,11.6393L10.263,8.20312C11.1152,7.40102,11.8854,6.52602,12.5553,5.56901L11.6484,5.09961C11.2428,5.71029,10.7643,6.28902,10.263,6.82682L10.263,1.38542L6.36654,1.38542C6.5944,1.01628,6.81771,0.59245,7.02734,0.19141L5.82422,0C5.71029,0.39649,5.48698,0.92058,5.26367,1.38542L2.36523,1.38542L2.36523,8.03452L0.501299,8.03452ZM23.9668,0.34636L23.0143,0.53321C23.6432,3.31771,24.5683,5.04493,26.291,6.52602C26.446,6.20252,26.7513,5.85152,27.0202,5.64193C25.4388,4.35677,24.5547,2.87565,23.9668,0.34636ZM17.0351,0.11849C16.3379,2.27409,15.1439,4.41602,13.8724,5.81052C14.0683,6.04752,14.3737,6.59442,14.4876,6.85422C14.8932,6.38472,15.2851,5.86982,15.6634,5.28646L15.6634,13.207L16.7161,13.207L16.7161,3.48633C17.2174,2.50196,17.6641,1.46289,18.0286,0.41927L17.0351,0.11849ZM20.4531,0.43295C19.8926,2.64779,18.8262,4.54362,17.3587,5.72852C17.5683,5.93812,17.9056,6.41212,18.0286,6.65362C18.3522,6.38472,18.6621,6.07942,18.9401,5.74219L18.9401,6.63542L20.7311,6.63542C20.4394,9.44272,19.5963,11.3568,17.6367,12.4459C17.86,12.6282,18.2246,13.0202,18.3659,13.2207C20.4531,11.9355,21.4193,9.83462,21.7702,6.63542L24.2767,6.63542C24.1081,10.263,23.8984,11.6484,23.6022,11.9765C23.4609,12.1497,23.3516,12.1771,23.1146,12.1771C22.873,12.1771,22.2715,12.1634,21.6426,12.1087C21.7975,12.3776,21.9206,12.7832,21.9388,13.0885C22.5814,13.1204,23.2103,13.1204,23.5749,13.0885C23.9668,13.0475,24.2448,12.9472,24.5,12.6282C24.9329,12.1224,25.1289,10.5547,25.3249,6.13412Q25.3385,5.99282,25.3385,5.6556L19.0085,5.6556C20.1159,4.32943,20.9544,2.60222,21.4876,0.66081L20.4531,0.43295ZM33.1497,9.18752L33.1497,10.1354L38.5,10.1354L38.5,9.18752L33.1497,9.18752ZM34.2845,2.84375C34.1842,4.23373,34.0065,6.12042,33.8242,7.24152L34.1022,7.24152L39.4935,7.25522C39.2246,10.418,38.9193,11.6621,38.5547,12.0267C38.4134,12.1634,38.2767,12.1953,38.0215,12.1771C37.7708,12.1771,37.1419,12.1771,36.4674,12.1087C36.6361,12.3776,36.7363,12.7832,36.7637,13.0749C37.4336,13.1204,38.0807,13.1204,38.4407,13.0885C38.8646,13.0612,39.1289,12.9655,39.3932,12.6556C39.8991,12.1497,40.2226,10.6823,40.5417,6.80862Q40.5553,6.65362,40.569,6.34372L38.8327,6.34372C39.0605,4.60287,39.2838,2.49284,39.3932,1.03451L38.6549,0.943359L38.4863,1.00717L33.6146,1.00717L33.6146,1.96875L38.304,1.96875C38.1901,3.20834,38.0078,4.92644,37.8392,6.34372L34.9271,6.34372C35.0547,5.30469,35.196,3.98308,35.2643,2.91211L34.2845,2.84375ZM28.123,0.80209L28.123,1.76823L29.832,1.76823C29.4401,3.95118,28.8112,5.96552,27.8177,7.37372C27.9818,7.66992,28.2233,8.28972,28.2917,8.56772C28.556,8.19862,28.8112,7.80212,29.0345,7.36002L29.0345,12.528L29.946,12.528L29.946,11.3659L32.5208,11.3659L32.5208,5.17709L29.9596,5.17709C30.3242,4.11068,30.6159,2.95313,30.8392,1.76823L32.9264,1.76823L32.9264,0.80209L28.123,0.80209ZM29.946,6.12952L31.5957,6.12952L31.5957,10.4271L29.946,10.4271L29.946,6.12952Z" fill="#18191C" fill-opacity="1"/></g></svg>